HIERARCHY
ROOT Hips
{
  OFFSET 24.5417 97.4488 -343.983
  CHANNELS 6 Xposition Yposition Zposition Zrotation Xrotation Yrotation
  JOINT ToSpine
  {
    OFFSET -0.0105055 1.38907 -7.13956
    CHANNELS 3 Zrotation Xrotation Yrotation
    JOINT Spine
    {
      OFFSET 0.0105055 10 1
      CHANNELS 3 Zrotation Xrotation Yrotation
      JOINT Spine1
      {
        OFFSET 0 12 1.60637
        CHANNELS 3 Zrotation Xrotation Yrotation
        JOINT Neck
        {
          OFFSET 0 27 2.26658
          CHANNELS 3 Zrotation Xrotation Yrotation
          JOINT Head
          {
            OFFSET 0 9 2.12705
            CHANNELS 3 Zrotation Xrotation Yrotation
            End Site
            {
              OFFSET 0 11 2
            }
          }
        }
        JOINT LeftShoulder
        {
          OFFSET 8 19.6109 2.86452
          CHANNELS 3 Zrotation Xrotation Yrotation
          JOINT LeftArm
          {
            OFFSET 12 1 0.681055
            CHANNELS 3 Zrotation Xrotation Yrotation
            JOINT LeftForeArm
            {
              OFFSET 19 0 -1.52608
              CHANNELS 3 Zrotation Xrotation Yrotation
              JOINT LeftHand
              {
                OFFSET 23 0 0
                CHANNELS 3 Zrotation Xrotation Yrotation
                End Site
                {
                  OFFSET 10 0 0
                }
              }
            }
          }
        }
        JOINT RightShoulder
        {
          OFFSET -8 19.6109 2.86452
          CHANNELS 3 Zrotation Xrotation Yrotation
          JOINT RightArm
          {
            OFFSET -12 1 0.681055
            CHANNELS 3 Zrotation Xrotation Yrotation
            JOINT RightForeArm
            {
              OFFSET -19 0 -1.52608
              CHANNELS 3 Zrotation Xrotation Yrotation
              JOINT RightHand
              {
                OFFSET -23 0 0
                CHANNELS 3 Zrotation Xrotation Yrotation
                End Site
                {
                  OFFSET -10 0 0
                }
              }
            }
          }
        }
      }
    }
  }
  JOINT LeftUpLeg
  {
    OFFSET 9 -7.17245 0
    CHANNELS 3 Zrotation Xrotation Yrotation
    JOINT LeftLeg
    {
      OFFSET 0 -44.1113 0
      CHANNELS 3 Zrotation Xrotation Yrotation
      JOINT LeftFoot
      {
        OFFSET 0 -36.1829 0
        CHANNELS 3 Zrotation Xrotation Yrotation
        JOINT LeftToeBase
        {
          OFFSET 0 -4.84184 13
          CHANNELS 3 Zrotation Xrotation Yrotation
          End Site
          {
            OFFSET 0 1 6
          }
        }
      }
    }
  }
  JOINT RightUpLeg
  {
    OFFSET -9 -7.17245 0
    CHANNELS 3 Zrotation Xrotation Yrotation
    JOINT RightLeg
    {
      OFFSET 0 -44.0551 0
      CHANNELS 3 Zrotation Xrotation Yrotation
      JOINT RightFoot
      {
        OFFSET 0 -36.1469 0
        CHANNELS 3 Zrotation Xrotation Yrotation
        JOINT RightToeBase
        {
          OFFSET 0 -4.92256 13
          CHANNELS 3 Zrotation Xrotation Yrotation
          End Site
          {
            OFFSET 0 1 6
          }
        }
      }
    }
  }
}
MOTION
Frames:	15
Frame Time:	0.0333333
24.5417 97.4488 -343.983 1.35169 4.95634 8.84881 0 0 0 2.99117 2.95185 -3.19451 -0.99778 4.37431 -3.18011 8.23378 -13.0741 0.319598 -4.88886 0.322377 2.91394 -28.0019 2.93135 -5.07828 -44.5387 24.1505 7.54806 15.9038 6.24765 -69.0961 -14.1313 0.131726 -1.12278 23.1147 4.89863 13.0492 55.8431 -1.22008 -39.8225 -16.4776 6.87355 67.9713 1.50272 0.0336972 2.56904 4.44071 -6.94672 5.12088 0.0348858 28.0471 -11.0552 12.787 -13.5213 1.52209 1.22226 -19.5498 1.5904 2.35853 5.03181 -7.24217 2.2642 8.30226 -12.9086 -22.6843 -14.8252 -2.98975 3.31955 -12.1498 -3.70733 
23.9587 97.1303 -342.795 1.59414 5.71115 13.7935 0 0 0 2.18534 4.37233 -4.3094 0.236118 3.7782 -4.60684 9.38307 -15.7659 -0.601436 -6.59217 0.471748 2.42554 -25.7913 2.83541 -5.35192 -46.8812 23.4691 10.3177 16.7343 4.61809 -75.0089 -14.2932 0.131729 -1.05059 23.6357 5.08088 13.3771 55.6859 -2.66235 -40.3991 -18.0083 7.37862 68.4431 0.905666 0.028789 3.6413 2.71747 -14.6995 0.129405 1.26956e-007 41.2269 -6.6117 15.0401 -12.5515 1.66345 1.21545 -19.4003 1.50222 3.17694 6.4988 -7.62413 2.82962 5.59522 -17.8225 -22.7096 -15.8083 -3.19402 3.06673 -10.9067 -5.24222 
23.5337 96.5738 -341.001 1.08719 6.67113 17.318 0 0 0 3.04554 4.98803 -4.52019 0.859249 3.01537 -4.85839 9.48083 -17.7575 -1.68714 -7.65606 0.806195 1.52268 -25.0323 2.86898 -5.66445 -47.6892 23.7746 13.7519 16.819 3.03737 -80.0575 -13.3249 0.137307 -1.17545 24.3093 5.2723 13.642 55.0115 -4.55768 -40.373 -20.7538 7.9628 69.919 0.247363 0.0115233 5.33435 1.0875 -21.2751 -1.72786 -4.0986e-008 51.2532 -3.92395 18.2941 -13.1254 2.12245 1.27906 -19.5081 0.721684 4.73559 7.54061 -7.51753 2.865 3.694 -21.0887 -22.4804 -16.1003 -3.22006 3.15126 -11.217 -5.84975 
23.2268 95.8352 -338.902 0.569556 8.00017 18.521 0 0 0 3.61705 5.34343 -3.59459 2.04031 1.94726 -4.10635 7.44905 -19.1115 -2.70565 -6.98978 1.4137 0.0831154 -26.388 2.88675 -5.353 -46.7874 24.2816 16.9407 20.1442 2.10094 -84.2928 -12.1559 0.165052 -1.54998 23.8975 5.38004 14.2116 53.681 -6.64911 -39.0022 -20.9458 7.10889 72.0836 -0.272801 -0.0130579 5.48085 -0.585826 -27.6845 -0.830289 -5.89274e-008 58.5678 -1.68473 19.95 -14.5169 2.56651 1.31376 -19.2231 -0.0715277 6.10942 8.43481 -6.71271 2.03125 0.805448 -22.1751 -22.5791 -14.8019 -2.97079 3.73868 -13.8997 -4.3929 
23.1153 94.8227 -336.664 0.294871 9.99851 17.5603 0 0 0 4.93211 5.27851 -1.85241 1.12674 1.16919 -2.12703 7.08774 -20.7153 -3.73788 -7.53262 1.64147 -0.870812 -26.2069 3.01601 -5.79779 -48.0898 22.991 21.1927 23.5283 1.16844 -87.3185 -11.6207 0.338564 -3.32619 24.7662 5.68196 14.6985 50.5928 -9.25879 -35.7839 -19.8946 5.40112 75.4204 -1.44455 -0.0694354 5.50357 -2.39756 -34.4627 1.48074 1.72716e-008 63.4413 -1.61971 19.8805 -15.8009 2.78628 1.41648 -18.8758 -1.76709 6.35132 6.88661 -6.05933 2.151 1.37555 -21.7652 -31.8621 -11.6332 -3.33114 4.63164 -24.2501 -20.6417 
22.6773 93.3716 -334.151 0.747822 12.5284 15.6369 0 0 0 3.38111 4.35675 0.548945 2.25927 1.54255 -0.00977013 6.3457 -23.4182 -4.47607 -8.10362 2.53772 -1.56679 -25.8548 2.87056 -5.44424 -48.516 21.5941 24.3746 23.5112 0.454241 -88.956 -10.0005 0.459751 -5.25104 25.0576 5.6208 14.3474 46.4069 -16.8491 -38.985 -19.8934 -1.15733 93.1947 -0.373158 -0.0128393 3.94119 -4.01452 -41.7601 4.94763 8.16897e-007 66.8749 -5.20041 22.0259 -15.7384 3.0816 1.32014 -20.025 0.720227 5.92726 6.60778 -5.87762 2.18428 1.34716 -17.6129 -28.4629 -10.8731 -2.76543 4.98097 -22.8068 -14.8803 
22.5843 92.6179 -331.051 -0.688886 12.2467 13.6669 0 0 0 6.24225 6.51987 2.2339 1.92947 0.485399 1.87868 4.60553 -24.0633 -4.55365 -7.41071 1.92778 -2.02572 -26.446 2.87278 -5.29522 -49.3806 19.4993 30.2122 24.3738 -0.696754 -91.5374 -8.82714 0.485185 -6.27983 25.3918 5.69718 14.4058 40.7074 -13.7736 -22.6004 -20.4002 1.39848 86.2454 -1.78678 -0.0798357 5.11628 -2.80649 -46.1437 7.94547 -2.06824e-007 67.9402 -6.83764 20.505 -17.4569 3.18135 1.29744 -19.1091 0.0399043 7.36683 7.37823 -5.62209 1.576 2.90738 -5.99626 -17.928 -13.7839 -2.18456 4.81088 -21.0928 -13.7841 
22.6601 91.1963 -327.596 -1.04056 10.697 13.8371 0 0 0 8.2963 8.05895 2.37021 1.00415 2.12586 2.36129 3.32869 -24.7709 -4.43057 -7.06544 1.9814 -2.11296 -26.3028 2.82177 -5.17617 -50.6926 17.6301 36.0656 27.628 -2.19505 -94.1853 -7.27259 0.468018 -7.35442 26.3448 5.86712 14.4202 33.9685 -16.1638 -12.5808 -16.1091 -0.558005 91.9313 0.259022 0.00714245 3.15902 -5.30663 -49.4732 6.71695 1.60733e-006 69.0106 -6.94277 20.6135 -17.8304 3.26805 1.32438 -19.3053 -0.137872 8.5749 10.7225 -5.11421 1.04924 3.14909 -2.62325 -12.8409 -17.746 -2.01285 5.06755 -22.385 -13.0322 
22.7425 89.7126 -323.899 -0.726583 10.6608 12.8829 0 0 0 8.9404 9.27841 3.15904 1.00296 2.51091 3.21978 1.85976 -25.1912 -4.79348 -7.24595 1.49993 -2.55054 -25.3271 2.78438 -5.31561 -51.4288 17.1179 41.277 28.0596 -4.41346 -98.2148 -7.75116 0.536494 -7.9068 25.998 5.783 14.3476 28.802 -19.5608 -0.00261779 -13.5011 -0.973605 94.0481 -0.372076 -0.0132558 4.08076 -8.85293 -53.5237 4.69106 -8.03179e-007 68.2287 -5.38719 20.736 -18.3005 3.37599 1.45947 -19.9197 -1.5302 8.27881 13.0464 -6.24797 0.816157 3.99102 1.54395 -7.64016 -22.9927 -1.55611 5.23052 -23.6033 -13.3914 
22.8367 88.2907 -319.892 -0.600177 11.0491 9.5982 0 0 0 11.4219 11.7251 4.92096 -1.62409 1.53528 5.87038 -0.976829 -25.9697 -5.43393 -6.48494 1.77823 -3.49032 -23.9742 2.7406 -5.54737 -51.449 18.2297 46.2576 31.3031 -8.37843 -103.475 -6.83797 0.449797 -7.51804 22.3964 5.32053 14.8723 27.652 -23.9462 11.4 -11.8999 -1.10969 95.2508 -1.79294 -0.0792498 5.06136 -8.87602 -57.656 5.2379 -9.05464e-007 67.132 -6.13985 21.0181 -19.7061 3.69072 1.39474 -19.1436 -1.26233 7.50774 16.2643 -7.4793 0.488649 2.91368 6.86524 -3.06115 -27.4057 -0.746556 5.36411 -24.8163 -13.96 
22.9958 87.3609 -315.165 0.616875 12.0398 5.39583 0 0 0 13.2555 14.7228 6.64718 -6.15296 -0.00131305 8.76658 -2.61518 -29.4789 -6.17192 -5.97999 3.59763 -4.14855 -22.0683 2.62673 -5.72182 -50.7547 18.9995 48.8741 33.3364 -11.5543 -106.936 -7.81737 0.617749 -9.02268 17.7901 4.79211 15.9412 28.262 -28.1857 20.5254 -10.5956 -1.10467 95.8841 -2.95973 -0.149484 5.78136 -7.90587 -60.6965 6.19989 -6.62823e-007 65.4721 -9.81346 19.7703 -20.7289 3.65092 1.26893 -15.9379 -1.91231 4.59079 18.4726 -9.53721 -0.15124 4.28826 14.0333 4.29297 -31.6932 1.21908 5.50465 -25.8397 -14.1105 
22.9848 86.7352 -309.829 3.04493 13.3985 1.37947 0 0 0 12.0503 17.0992 8.41749 -9.5464 -1.48223 11.0781 -3.53643 -34.7412 -7.03919 -6.14912 6.39807 -4.48368 -20.7869 2.61161 -6.07316 -49.4645 18.9315 49.3888 31.6643 -12.7456 -109.683 -6.87783 0.575943 -9.56208 13.0169 3.94081 15.9694 30.4443 -30.7425 27.979 -15.0404 -1.92637 97.1307 -3.40805 -0.141712 4.76074 -7.63446 -62.2533 6.15988 1.36296e-006 63.8493 -14.0445 18.4372 -19.7473 3.2362 1.38065 -11.3647 -4.38694 0.747443 19.77 -10.9975 -1.65632 6.40109 18.184 14.4792 -36.2464 4.76167 5.55124 -25.5911 -13.3444 
22.8473 86.5201 -303.87 5.22228 14.3528 -2.08857 0 0 0 11.8006 20.1123 8.79679 -15.3981 -4.23821 12.3379 -0.954899 -40.3215 -7.12833 -6.40199 8.99638 -4.2251 -17.9161 2.44526 -6.43792 -50.1291 17.749 48.4876 31.3576 -12.886 -110.101 -5.89652 0.535385 -10.3671 9.33047 3.4009 16.6281 35.7769 -29.6073 30.2675 -16.3014 -2.53416 98.5974 -5.62612 -0.233458 4.74848 -6.97641 -60.4665 6.10973 -1.10342e-006 61.4829 -16.4686 18.7757 -18.4534 3.07684 1.21498 -11.7424 -3.11259 -3.04528 20.1313 -12.0167 -3.41683 10.8267 20.8326 27.4631 -39.3787 9.99462 5.383 -23.2121 -10.9505 
22.2206 86.4527 -297.634 7.75918 16.0605 -4.30653 0 0 0 8.56095 20.1579 9.40278 -18.547 -5.57265 12.9093 2.64827 -45.0121 -6.78282 -6.46068 11.9379 -4.01937 -16.8915 2.62712 -7.59887 -50.9419 16.8719 46.1801 30.3158 -12.7201 -110.635 -5.5721 0.453703 -9.30271 9.20168 3.3704 16.5871 37.8845 -24.8166 28.6443 -16.0463 -2.69278 99.2769 -5.90653 -0.254106 4.92247 -8.41915 -56.9533 5.11739 5.60906e-007 58.6508 -12.9962 19.0588 -14.3628 2.42344 1.4216 -9.47236 -5.0036 -6.20182 17.8463 -7.55816 -5.63832 18.9247 16.8559 47.9239 -40.1537 18.4526 4.55476 -17.6142 -6.09579 
21.5429 86.7649 -290.461 7.34148 17.7269 -4.51097 0 0 0 7.29131 18.4451 8.65743 -18.2441 -6.70172 11.8777 4.75971 -45.3701 -5.64611 -4.60384 13.021 -3.83704 -18.5937 3.04302 -8.54632 -50.3738 14.8522 41.1316 29.9074 -11.6858 -109.399 -4.46144 0.343509 -8.8012 9.99518 3.75342 17.9209 38.4875 -17.0739 25.1742 -17.5077 -1.95626 96.1763 -3.98224 -0.217671 6.25489 -6.192 -54.351 8.2969 4.72268e-007 62.4057 -14.8235 24.7347 -22.1753 4.92089 1.04773 -7.95272 -3.04305 -5.81489 10.867 3.13732 6.82874e-009 35.6368 -0.477268 41.89 -32.3375 12.6652 6.35482 -24.2308 -3.01946 
